<svg width="1000" height="1000" viewBox="0 0 1000 1000" fill="none" xmlns="http://www.w3.org/2000/svg">
<rect width="1000" height="1000" rx="90" fill="#0F0F0F"/>
<path d="M543.464 262.464C591.87 234.516 653.767 251.101 681.715 299.508C709.662 347.914 693.077 409.811 644.671 437.759L637.107 442.125C652.534 450.726 665.917 463.48 675.389 479.888C703.337 528.294 686.752 590.191 638.346 618.139L441.138 731.996C392.732 759.943 330.835 743.358 302.888 694.952C274.94 646.546 291.525 584.649 339.931 556.701L347.495 552.334C332.068 543.733 318.686 530.979 309.213 514.572C281.265 466.166 297.85 404.269 346.257 376.321L543.464 262.464ZM458.712 562.35L572.569 496.614L458.712 430.879V562.35Z" fill="white"/>
<path d="M833 167.693L167.746 832.947" stroke="#FF0000" stroke-width="25.3017" stroke-linecap="round"/>
<path d="M832.913 832.953L167.659 167.699" stroke="#FF0000" stroke-width="25.3017" stroke-linecap="round"/>
</svg>
